<?xml version="1.0" standalone="no"?>
<!DOCTYPE svg PUBLIC "-//W3C//DTD SVG 20010904//EN"
 "http://www.w3.org/TR/2001/REC-SVG-20010904/DTD/svg10.dtd">
<svg version="1.0" xmlns="http://www.w3.org/2000/svg"
 width="1200.000000pt" height="1200.000000pt" viewBox="0 0 1200.000000 1200.000000"
 preserveAspectRatio="xMidYMid meet">
<metadata>
Created by potrace 1.11, written by Peter Selinger 2001-2013
</metadata>
<g transform="translate(0.000000,1200.000000) scale(0.100000,-0.100000)"
fill="#000000" stroke="none">
<path d="M5909 9096 c-2 -2 -22 -6 -44 -10 -22 -3 -141 -26 -265 -51 -124 -25
-238 -48 -255 -51 -16 -2 -37 -7 -45 -9 -8 -2 -31 -7 -50 -10 -19 -3 -53 -10
-75 -15 -22 -5 -53 -11 -70 -14 -16 -3 -235 -46 -485 -96 -250 -50 -468 -93
-485 -96 -16 -2 -37 -7 -45 -9 -8 -2 -28 -6 -44 -9 -199 -35 -244 -58 -290
-151 l-27 -56 4 -1387 c1 -763 6 -1399 10 -1415 4 -15 9 -44 11 -65 2 -20 7
-53 10 -72 3 -19 8 -46 10 -60 10 -60 42 -191 66 -270 21 -69 25 -94 12 -86
-4 2 -32 -2 -62 -10 -30 -8 -71 -17 -90 -20 -19 -3 -48 -9 -65 -14 -16 -4 -75
-18 -130 -30 -163 -35 -152 -25 -150 -136 1 -52 -2 -100 -7 -107 -4 -6 -8 -9
-8 -6 0 4 -30 -2 -67 -13 -38 -11 -79 -21 -93 -24 -14 -3 -45 -11 -70 -19 -25
-8 -79 -24 -120 -35 -98 -29 -263 -81 -273 -87 -4 -3 -4 -10 1 -16 9 -12 55
-98 167 -312 32 -60 64 -121 72 -133 14 -22 7 -42 -92 -290 -58 -147 -117
-293 -130 -324 -14 -32 -23 -58 -21 -58 3 0 108 31 236 69 127 39 327 94 445
123 l215 53 0 103 c0 56 2 102 5 102 2 0 68 13 147 29 79 17 184 37 233 47 50
9 99 18 110 20 22 5 49 9 115 19 25 4 54 9 65 11 11 2 40 7 65 10 25 3 52 8
61 9 9 2 38 6 65 9 48 6 50 6 104 -47 30 -29 84 -77 120 -107 36 -30 67 -57
70 -60 31 -32 243 -180 410 -285 153 -97 421 -227 615 -300 197 -73 266 -68
515 37 379 161 749 398 1040 666 61 56 102 87 115 86 32 -3 85 -11 150 -23 33
-6 76 -13 95 -16 19 -4 85 -16 145 -27 61 -11 119 -21 130 -23 11 -2 85 -18
165 -35 80 -18 152 -33 160 -35 8 -2 33 -8 55 -13 22 -6 53 -13 68 -16 47 -8
52 -18 50 -105 l-1 -80 33 -11 c17 -6 43 -13 56 -15 30 -6 286 -74 319 -85 14
-4 57 -17 95 -29 39 -11 114 -34 169 -51 54 -17 100 -29 103 -27 2 2 -8 33
-23 68 -14 35 -30 73 -34 84 -4 11 -12 31 -18 45 -6 14 -48 120 -94 235 l-84
210 22 40 c11 22 47 90 79 150 31 61 80 152 107 203 28 51 48 95 47 96 -7 6
-300 94 -468 140 -91 25 -168 50 -171 56 -3 5 -5 45 -3 89 l3 79 -33 7 c-17 4
-40 9 -49 11 -9 2 -70 17 -135 33 -65 17 -129 32 -143 35 -14 2 -57 12 -97 21
l-72 16 15 42 c17 48 61 210 68 253 3 16 10 52 15 81 6 29 13 74 16 100 4 26
9 59 13 73 3 14 8 655 9 1424 l4 1399 -25 53 c-40 83 -82 106 -267 144 -85 18
-163 34 -174 36 -11 2 -33 7 -50 9 -16 3 -37 8 -45 10 -8 2 -31 7 -50 10 -19
3 -91 17 -160 31 -69 14 -136 28 -150 30 -14 3 -113 23 -220 44 -107 22 -206
41 -220 44 -14 2 -93 18 -175 35 -83 16 -163 33 -180 35 -34 7 -59 11 -130 26
-27 6 -61 12 -74 15 -14 3 -70 14 -125 26 -88 18 -267 34 -277 25z"/>
</g>
</svg>
